<svg xmlns="http://www.w3.org/2000/svg" xmlns:xlink="http://www.w3.org/1999/xlink" viewBox="0 0 1024 1024"><defs><style>.cls-1{fill:none;}.cls-2{isolation:isolate;}.cls-3{fill:#43a1ff;}.cls-4{fill:#70706f;}.cls-5{fill:#e75257;}.cls-6{fill:#e2cbaa;}.cls-7{fill:#d6b992;}.cls-8{fill:#f6ead2;}.cls-9{fill:#eddbbd;}.cls-10{fill:#fff;}.cls-11{fill:#48b1ab;}.cls-12{clip-path:url(#clip-path);}.cls-13{fill:#d6d6d6;}.cls-14{fill:#f5b382;}.cls-15{fill:#f29f7f;}.cls-16{fill:#ed8776;}.cls-17{fill:#eb766e;}.cls-18{fill:#e75d65;}.cls-19{fill:#e9e8e8;}.cls-20{fill:#ffd70e;}.cls-21{fill:#f9c616;}.cls-22{fill:#f6b61a;}.cls-23{fill:#f2a31e;}.cls-24{fill:#ee8e20;}.cls-25{fill:#b8cae8;}.cls-26{fill:#9ec2e5;}.cls-27{fill:#83b9e3;}.cls-28{fill:#67b0df;}.cls-29{fill:#30a4da;}.cls-30{fill:#595957;}.cls-31{fill:#f1f1f1;}.cls-32{fill:#71706f;}.cls-33{fill:#aeadad;}.cls-34{fill:#f0ca32;}.cls-35{fill:#ddb61f;}.cls-36{fill:#828383;}.cls-37{fill:#ea8021;}.cls-38{fill:#1b98d2;}.cls-39{fill:#0088b8;}.cls-40{fill:#03819e;}.cls-41{fill:#0d5268;}.cls-42{fill:#cd9861;}.cls-43{fill:#edc01b;}.cls-44{fill:#dfa77e;}.cls-45{fill:#cdcdcc;}.cls-46{fill:#e65730;}.cls-47{fill:#bb8659;}.cls-48{fill:#1e1f1d;}.cls-49{fill:#dadcdc;}.cls-50{fill:#b6b6b5;}.cls-51{fill:#e6644c;}.cls-52{fill:#d44625;}.cls-53{fill:#e9aa34;}.cls-54{fill:#edbc35;}.cls-55{fill:#e79834;}.cls-56{fill:#eec134;}.cls-57{fill:#ecb735;}.cls-58{fill:#c4a37c;}.cls-59{fill:#80caeb;}.cls-60{fill:#7f4e24;}.cls-61{fill:#734928;}.cls-62{fill:#038b3d;}.cls-63{fill:#097e3a;}.cls-64{fill:#d1e8f0;opacity:0.17;}.cls-65{fill:#4b494a;}.cls-66{fill:#f2f2f2;}.cls-67{fill:#d6d7d7;}.cls-68{fill:#e86c21;}.cls-69{fill:#c7e4eb;}.cls-70{fill:#2b7181;}.cls-71{fill:#27606e;}.cls-72{fill:#1f515e;}.cls-73{fill:#bb1b24;}.cls-74{opacity:0.4;mix-blend-mode:multiply;}.cls-75{fill:#595959;}</style><clipPath id="clip-path"><rect class="cls-1" x="234.51" y="345.04" width="182.92" height="182.92" transform="translate(-12.41 9.55) rotate(-1.65)"/></clipPath></defs><g class="cls-2"><g id="Layer_1" data-name="Layer 1"><rect class="cls-3" x="-1.14" y="-1.14" width="1026.27" height="1026.27" rx="513.13"/><path class="cls-4" d="M349.82,554.61A1322.91,1322.91,0,0,1,678.18,477a363.6,363.6,0,0,0-328.36,77.65Z"/><path class="cls-5" d="M564.2,735.55a.3.3,0,0,1-.23.37,1528.36,1528.36,0,0,0-358.58,98.36c-8.73,3.59-18.62-1.81-20.8-11.33L75.73,349.16a9.77,9.77,0,0,1,6.16-11.51c48.71-16.65,102.46-32.59,161-46.43a1729.53,1729.53,0,0,1,195.41-34.54.29.29,0,0,1,.31.23Z"/><path class="cls-5" d="M564.19,735.52a.29.29,0,0,0,.37.23,1526.54,1526.54,0,0,1,365.56-68c9.42-.58,16-9.77,13.76-19.3L834.86,174a9.76,9.76,0,0,0-10.56-7.69c-51.1,6.28-106.42,15.39-165.08,28.46A1726.79,1726.79,0,0,0,468.33,249a.29.29,0,0,0-.18.34Q516.17,492.42,564.19,735.52Z"/><path class="cls-5" d="M564.4,736.4a1317.69,1317.69,0,0,0-356,80.46A8.17,8.17,0,0,1,197.53,811l-106.6-464a11.84,11.84,0,0,1,7.76-13.86C146.91,317,200,301.4,257.73,287.76a1788.33,1788.33,0,0,1,195.58-34.9Z"/><path class="cls-5" d="M925.81,635.67a11,11,0,0,1-9.73,13.47A1211.61,1211.61,0,0,0,564.62,736.3h0l-.2.09L453.31,252.85l1.75-.61c2.4-.85,4.8-1.69,7.24-2.52a1654.27,1654.27,0,0,1,348.35-79.81,8.34,8.34,0,0,1,9.1,6.44q1,4.35,2,8.7Q873.78,410.37,925.81,635.67Z"/><path class="cls-4" d="M458.35,280.43q30.48,117.63,58.78,242.32,21.81,96.43,40.47,189.67"/><path class="cls-6" d="M560.47,718a.26.26,0,0,1-.22.33,1468.49,1468.49,0,0,0-332.82,90.79,14.23,14.23,0,0,1-19.19-10L110.7,374.63a8.87,8.87,0,0,1,5.78-10.38c45.24-15.28,95.14-30,149.41-42.79A1660.11,1660.11,0,0,1,447.14,289.1a.26.26,0,0,1,.29.2Z"/><path class="cls-7" d="M560.47,718a.26.26,0,0,0,.34.2,1468,1468,0,0,1,339.08-63.58,14.23,14.23,0,0,0,12.89-17.4l-97.53-424.5a8.86,8.86,0,0,0-9.73-6.82c-47.37,6-98.68,14.57-153.11,26.71a1660.81,1660.81,0,0,0-177.19,50,.27.27,0,0,0-.18.3Q517.76,500.5,560.47,718Z"/><path class="cls-8" d="M560.55,718.33A1223.22,1223.22,0,0,0,230.21,793a7.59,7.59,0,0,1-10.08-5.4L121.22,357.08a11,11,0,0,1,7.2-12.86c44.75-15.05,94-29.52,147.57-42.17a1660.45,1660.45,0,0,1,181.47-32.39Z"/><path class="cls-9" d="M895.89,624.86a10.24,10.24,0,0,1-9,12.51,1124.52,1124.52,0,0,0-326.11,80.87h0l-.19.08L457.46,269.66l1.63-.57c2.23-.79,4.45-1.57,6.71-2.34A1536.44,1536.44,0,0,1,789,192.69a7.75,7.75,0,0,1,8.45,6c.62,2.69,1.24,5.39,1.87,8.08Q847.61,415.81,895.89,624.86Z"/><path class="cls-7" d="M546.8,600.52l-2.13,3.92c-.66,1.19-1.33,2.4-2,3.59q-8.13,14.31-18.55,29.27a2.24,2.24,0,0,1-1.35.89,2.22,2.22,0,0,1-1.63-.22,1.85,1.85,0,0,1-.61-2.72,362.81,362.81,0,0,0,20.59-33c.74-1.31,1.45-2.64,2.14-4s1.53-2.91,2.26-4.37c20.27-40,26.16-75.75,17.49-106.62-5-17.95-14-31.18-22.66-44-12.88-19-25-37-24.71-68.43.12-11.37,1.89-21.31,3.45-30.09,2.85-16,5.09-28.58-3.09-42.38-4.7-7.93-11.91-14.6-21.52-19.94a104.5,104.5,0,0,0-23.19-9.13.32.32,0,0,1,0-.61l4.87-1.65h0s14.43,4.53,23.56,9.68c2,1.1,13.08,7.84,20.08,19.65,8.87,15,6.4,28.82,3.55,44.88-1.55,8.62-3.29,18.41-3.41,29.46-.3,30.3,11.55,47.82,24.1,66.36,8.83,13,18,26.52,23.15,45C576.45,519.26,569.6,557.58,546.8,600.52Z"/><path class="cls-7" d="M439.11,592.1,234.82,598l-7.28-253.06L431.84,339l6.92,240.61Z"/><path class="cls-10" d="M433.15,586.42l-204.3,5.87-7.27-253.07,204.3-5.87L432.79,574Z"/><rect class="cls-11" x="234.51" y="345.04" width="182.92" height="182.92" transform="translate(-12.41 9.55) rotate(-1.65)"/><g class="cls-12"><path class="cls-13" d="M376.64,409.23l-3.92,6.89a1.75,1.75,0,0,0,.66,2.39l17.85,10.15a1.76,1.76,0,0,0,2.39-.66l3.92-6.9a1.75,1.75,0,0,0-.66-2.39L379,408.57A1.75,1.75,0,0,0,376.64,409.23Zm-1,4a.43.43,0,0,1,.58-.16.43.43,0,1,1-.58.16Z"/><rect class="cls-14" x="373.07" y="413.26" width="11.44" height="3.49" transform="translate(-169.16 539.37) rotate(-60.4)"/><rect class="cls-15" x="376.48" y="415.2" width="11.44" height="3.49" transform="translate(-169.12 543.32) rotate(-60.4)"/><rect class="cls-16" x="379.9" y="417.14" width="11.44" height="3.49" transform="translate(-169.08 547.27) rotate(-60.4)"/><rect class="cls-17" x="383.31" y="419.08" width="11.44" height="3.49" transform="translate(-169.04 551.22) rotate(-60.4)"/><rect class="cls-18" x="386.73" y="421.02" width="11.44" height="3.49" transform="translate(-169 555.18) rotate(-60.4)"/><path class="cls-19" d="M375.34,409.23,373.7,417a1.75,1.75,0,0,0,1.35,2.07l20.09,4.25a1.76,1.76,0,0,0,2.08-1.35l1.63-7.76a1.74,1.74,0,0,0-1.35-2.08l-20.09-4.24A1.75,1.75,0,0,0,375.34,409.23Zm.22,4.1a.43.43,0,0,1,.84.17.42.42,0,0,1-.51.33A.42.42,0,0,1,375.56,413.33Z"/><rect class="cls-20" x="373.42" y="412.34" width="11.44" height="3.49" transform="translate(-104.4 699.4) rotate(-78.07)"/><rect class="cls-21" x="377.26" y="413.15" width="11.44" height="3.49" transform="translate(-102.14 703.8) rotate(-78.07)"/><rect class="cls-22" x="381.1" y="413.96" width="11.44" height="3.49" transform="translate(-99.89 708.21) rotate(-78.07)"/><rect class="cls-23" x="384.95" y="414.78" width="11.44" height="3.49" transform="translate(-97.64 712.61) rotate(-78.07)"/><rect class="cls-24" x="388.79" y="415.59" width="11.44" height="3.49" transform="translate(-95.38 717.02) rotate(-78.07)"/><path class="cls-10" d="M373.8,409.78l1.41,7.8a1.75,1.75,0,0,0,2,1.41l20.2-3.65a1.76,1.76,0,0,0,1.41-2l-1.41-7.8a1.75,1.75,0,0,0-2-1.42l-20.2,3.66A1.76,1.76,0,0,0,373.8,409.78Zm1.75,3.71a.43.43,0,0,1,.35-.49.42.42,0,0,1,.15.83A.42.42,0,0,1,375.55,413.49Z"/><rect class="cls-25" x="373.43" y="411.09" width="11.44" height="3.49" transform="translate(40.46 859.47) rotate(-100.26)"/><rect class="cls-26" x="377.3" y="410.39" width="11.44" height="3.49" transform="translate(45.7 862.45) rotate(-100.26)"/><rect class="cls-27" x="381.16" y="409.7" width="11.44" height="3.49" transform="translate(50.95 865.43) rotate(-100.26)"/><rect class="cls-28" x="385.03" y="409" width="11.44" height="3.49" transform="translate(56.19 868.41) rotate(-100.26)"/><rect class="cls-29" x="388.89" y="408.3" width="11.44" height="3.49" transform="translate(61.43 871.39) rotate(-100.26)"/><path class="cls-30" d="M376.22,413.07l0,0,.05,0h0a2.6,2.6,0,0,1-.26.64s0,0,0,0h0a1.77,1.77,0,0,1-1.33.93h0a1.51,1.51,0,0,1-.5-.07,1.36,1.36,0,0,1-.5-.27,2,2,0,0,1-.2-.21,1.39,1.39,0,0,1-.11-1.42,1.35,1.35,0,0,1,.85-.68l.06.32a1,1,0,0,0-.54,1.59l.11.12a.91.91,0,0,0,.4.24,1.09,1.09,0,0,0,.39.06h0a1.38,1.38,0,0,0,1-.7h0A2.2,2.2,0,0,0,376,413h0l.07,0Z"/><rect class="cls-31" x="273.29" y="477.2" width="2.93" height="7.63" rx="0.75" transform="translate(-224.29 240.56) rotate(-34.54)"/><path class="cls-32" d="M288.72,504.38l-6.52,4.2a1.28,1.28,0,0,1-1.73-.32l-16.84-22.85,9.82-6.33,15.66,23.42A1.35,1.35,0,0,1,288.72,504.38Z"/><path class="cls-33" d="M271.55,451.88l-.2.14-.2.12Z"/><path class="cls-34" d="M304.25,396.7l43.68,67.71-59.16,7.14-.15,0a8.93,8.93,0,0,0-3.73,1.36L261.1,488.29c-3.07,2-7.41.69-9.7-2.86l-5.2-8.06c-2.3-3.56-1.67-8.05,1.39-10l23.56-15.2.2-.12.2-.14a8.91,8.91,0,0,0,2.62-2.75l.24-.4Q289.32,422.71,304.25,396.7Z"/><path class="cls-24" d="M268.8,453.65l13.51,21L261.1,488.29c-3.07,2-7.41.69-9.7-2.86l-5.2-8.06c-2.3-3.56-1.67-8.05,1.39-10Z"/><path class="cls-24" d="M325.66,388.81h3.47a1.87,1.87,0,0,1,1.87,1.87v76.82a1.89,1.89,0,0,1-1.89,1.89h-3.46a0,0,0,0,1,0,0V388.81a0,0,0,0,1,0,0Z" transform="translate(-180.19 246.52) rotate(-32.83)"/><path class="cls-35" d="M346.18,461.69l1.76,2.73-59.16,7.14-.15,0A8.9,8.9,0,0,0,284.9,473l-2.58,1.66-1.76-2.73,2.58-1.66a9.09,9.09,0,0,1,3.73-1.37H287Z"/><path class="cls-36" d="M284.32,507.21l-2.12,1.37a1.29,1.29,0,0,1-1.73-.31q-8.42-11.44-16.84-22.86l2.13-1.37q8.4,11.43,16.83,22.86A1.29,1.29,0,0,0,284.32,507.21Z"/><path class="cls-37" d="M280.56,471.87l1.75,2.73L261.1,488.29c-3.07,2-7.41.69-9.7-2.86l-1.76-2.73c2.29,3.56,6.63,4.84,9.7,2.86Z"/><path class="cls-37" d="M349.45,456.91l1.76,2.73a2.29,2.29,0,0,1-.69,3.17L348,464.46l-1.76-2.72,2.56-1.65A2.3,2.3,0,0,0,349.45,456.91Z"/><path class="cls-30" d="M355.7,428.22l.1-.61c1.45.06,1.66-.13,1.49-1s-.41-2.05-.64-3.5l-4.7-.77c-.51.92-1,1.72-1.43,2.56-.71,1.34-.43,1.56,1.32,2.07l-.1.61-5-.82.1-.61c1.41.05,1.78,0,2.86-1.88l6.38-10.7.72,0c.76,3.95,1.59,8.32,2.35,12.31.39,2,.55,2.21,2.07,2.64l-.1.61Zm-.28-12c-1,1.75-2.07,3.62-3,5.23l4.07.67Z"/><path class="cls-30" d="M380,391.13a2.85,2.85,0,0,0-1.92,1.45,3.74,3.74,0,0,0-.09,2.63,3.5,3.5,0,0,0,1.5,2.22,3.1,3.1,0,0,0,2.47.25,3.68,3.68,0,0,0,1.21-.55,8.75,8.75,0,0,0,.87-.72,1.72,1.72,0,0,1,.65.48,1.8,1.8,0,0,1,.4.78,1.54,1.54,0,0,1-.48,1.5,5.05,5.05,0,0,1-2.39,1.2,7.68,7.68,0,0,1-2.4.28,5.13,5.13,0,0,1-3.93-2,6.89,6.89,0,0,1-1.18-2.51,6.79,6.79,0,0,1-.24-2.63,5.38,5.38,0,0,1,2.24-3.8,6.54,6.54,0,0,1,2.12-1,5.23,5.23,0,0,1,2.75-.16,1.66,1.66,0,0,1,1.3,1.15,1.42,1.42,0,0,1,0,.89,2.17,2.17,0,0,1-.4.7,6.31,6.31,0,0,0-1.16-.26A3.39,3.39,0,0,0,380,391.13Z"/><path class="cls-38" d="M366.16,399.12l-29.26,5.66.18,3.62,0,.14,1.18,3.43,29.26-5.67c-.41-1.16-.81-2.33-1.21-3.49Z"/><path class="cls-39" d="M366.34,402.81l-29.25,5.66,0,.07,1.18,3.43,29.26-5.67C367.14,405.14,366.74,404,366.34,402.81Z"/><path class="cls-40" d="M367.55,406.3l-1.39-7.18.18,3.69,1.21,3.49Z"/><path class="cls-41" d="M365.48,405a.06.06,0,0,0,0,.07h0l.55,1.56.14,0-.56-1.58A.06.06,0,0,0,365.48,405Z"/><path class="cls-41" d="M363.09,405.42a.06.06,0,0,0,0,.08h0l.55,1.56.14,0-.56-1.58S363.13,405.41,363.09,405.42Z"/><path class="cls-41" d="M360.7,405.88a.07.07,0,0,0,0,.08h0l.55,1.56.14,0-.56-1.58A.08.08,0,0,0,360.7,405.88Z"/><path class="cls-41" d="M358.33,406.47a.07.07,0,0,0,0,.08h0l.51,1.44.14,0-.52-1.45A.07.07,0,0,0,358.33,406.47Z"/><path class="cls-41" d="M355.94,406.94a.06.06,0,0,0,0,.08h0l.51,1.43.13,0L356,407A.06.06,0,0,0,355.94,406.94Z"/><path class="cls-41" d="M353.55,407.4a.07.07,0,0,0,0,.08h0l.51,1.43.13,0-.51-1.46A.08.08,0,0,0,353.55,407.4Z"/><path class="cls-41" d="M351.16,407.86a.07.07,0,0,0,0,.08h0l.5,1.44.14,0-.51-1.46A.08.08,0,0,0,351.16,407.86Z"/><path class="cls-41" d="M348.77,408.32a.1.1,0,0,0,0,.08h0l.5,1.44.14,0-.51-1.45A.07.07,0,0,0,348.77,408.32Z"/><path class="cls-41" d="M346.38,408.79a.08.08,0,0,0-.05.08h0l.5,1.43.14,0-.51-1.46A.07.07,0,0,0,346.38,408.79Z"/><path class="cls-41" d="M344,409.25a.07.07,0,0,0-.05.08h0l.51,1.43.14,0-.51-1.46A.09.09,0,0,0,344,409.25Z"/><path class="cls-41" d="M341.6,409.71s-.06.05-.05.08h0l.51,1.44.14,0-.52-1.45A.07.07,0,0,0,341.6,409.71Z"/><path class="cls-41" d="M339.2,410.18a.06.06,0,0,0,0,.08h0l.51,1.43.14,0-.52-1.45A.06.06,0,0,0,339.2,410.18Z"/><path class="cls-41" d="M364.61,406.13s0,0,0,0h0l.23.66h.07l-.24-.67S364.63,406.12,364.61,406.13Z"/><path class="cls-41" d="M362.22,406.59s0,0,0,0h0l.23.65h.07l-.24-.67S362.24,406.58,362.22,406.59Z"/><path class="cls-41" d="M359.83,407.05a.05.05,0,0,0,0,0h0l.23.66.07,0-.24-.66A.05.05,0,0,0,359.83,407.05Z"/><path class="cls-41" d="M357.46,407.65s0,0,0,0h0l.19.53h.07l-.2-.54S357.48,407.64,357.46,407.65Z"/><path class="cls-41" d="M355.07,408.11s0,0,0,0h0l.19.54.07,0-.2-.54S355.09,408.1,355.07,408.11Z"/><path class="cls-41" d="M352.68,408.57s0,0,0,0h0l.19.53h.06l-.19-.55A0,0,0,0,0,352.68,408.57Z"/><path class="cls-41" d="M350.29,409a.05.05,0,0,0,0,0h0l.18.53h.07l-.19-.54A.05.05,0,0,0,350.29,409Z"/><path class="cls-41" d="M347.9,409.5s0,0,0,0h0l.19.54.07,0-.19-.54S347.91,409.49,347.9,409.5Z"/><path class="cls-41" d="M345.5,410a.05.05,0,0,0,0,0h0l.19.54h.07l-.19-.55A0,0,0,0,0,345.5,410Z"/><path class="cls-41" d="M343.11,410.42l0,0h0l.19.53h.07l-.19-.55Z"/><path class="cls-41" d="M340.72,410.89s0,0,0,0h0l.19.53H341l-.19-.54A0,0,0,0,0,340.72,410.89Z"/><path class="cls-41" d="M342,403.8l-.07,0,0,.49h0s0,0,0,0,0,0,0,0Z"/><path class="cls-41" d="M364.73,399.39l-.14,0,.07,1.58h0a.07.07,0,0,0,.07.06.07.07,0,0,0,.07-.07Z"/><path class="cls-41" d="M362.34,399.86l-.14,0,.07,1.59h0a.08.08,0,0,0,.07,0,.07.07,0,0,0,.07-.07Z"/><path class="cls-41" d="M360,400.32l-.14,0,.07,1.58h0a.07.07,0,0,0,.07.06.08.08,0,0,0,.07-.08Z"/><path class="cls-41" d="M357.54,400.79l-.14,0,.06,1.45h0a.07.07,0,0,0,.07.06.07.07,0,0,0,.07-.07Z"/><path class="cls-41" d="M355.14,401.25l-.13,0,.06,1.45h0a.08.08,0,0,0,.07.05.07.07,0,0,0,.07-.07Z"/><path class="cls-41" d="M352.75,401.71l-.14,0,.07,1.45h0s0,.06.07.06a.08.08,0,0,0,.07-.08Z"/><path class="cls-41" d="M350.36,402.18l-.14,0,.07,1.45h0s0,.06.07.06a.08.08,0,0,0,.07-.07Z"/><path class="cls-41" d="M348,402.64l-.14,0,.07,1.45h0s0,.05.07.05a.06.06,0,0,0,.06-.07Z"/><path class="cls-41" d="M345.58,403.1l-.14,0,.06,1.45h0a.07.07,0,0,0,.14,0Z"/><path class="cls-41" d="M343.19,403.56l-.14,0,.06,1.45h0a.08.08,0,0,0,.08.06s.06,0,.06-.07Z"/><path class="cls-41" d="M340.8,404l-.14,0,.06,1.45v0a.08.08,0,0,0,.07.05.07.07,0,0,0,.07-.07Z"/><path class="cls-41" d="M338.4,404.49l-.13,0,.06,1.45h0s0,.06.07,0a.07.07,0,0,0,.07-.07Z"/><path class="cls-41" d="M363.49,399.63l-.07,0,0,.63h0a0,0,0,0,0,0,0,0,0,0,0,0,0,0Z"/><path class="cls-41" d="M361.1,400.1H361l0,.63h0a0,0,0,0,0,0,0s0,0,0,0Z"/><path class="cls-41" d="M358.71,400.56h-.07l0,.63h0s0,0,0,0,0,0,0,0Z"/><path class="cls-41" d="M356.29,401h-.06l0,.5h0a0,0,0,0,0,0,0,0,0,0,0,0,0,0Z"/><path class="cls-41" d="M353.9,401.49h-.07l0,.5h0a0,0,0,0,0,0,0,0,0,0,0,0,0,0Z"/><path class="cls-41" d="M351.51,402l-.07,0,0,.49h0s0,0,0,0,0,0,0,0Z"/><path class="cls-41" d="M349.12,402.42h-.07l0,.49h0s0,0,0,0,0,0,0,0Z"/><path class="cls-41" d="M346.73,402.88h-.07l0,.5h0s0,0,0,0,0,0,0,0Z"/><path class="cls-41" d="M344.34,403.34h-.07l0,.5h0l0,0a0,0,0,0,0,0,0Z"/><path class="cls-41" d="M339.56,404.27h-.07l0,.5h0s0,0,0,0a0,0,0,0,0,0,0Z"/><path class="cls-42" d="M370.77,429.51l-1-4.45-2.55,3.78Z"/><path class="cls-43" d="M364.56,448l1.79.33,3.52-19a1.08,1.08,0,0,0-.23-.42,1,1,0,0,0-.54-.31h-.05a.92.92,0,0,0-.63.11,1.05,1.05,0,0,0-.34.29Z"/><path class="cls-44" d="M369.72,425.06,368.06,429l-.89-.16Z"/><rect class="cls-45" x="364.55" y="447.05" width="1.53" height="3.66" transform="translate(873.35 171.68) rotate(100.52)"/><rect class="cls-46" x="363.64" y="449.07" width="2.58" height="3.66" rx="1.29" transform="translate(874.89 174.43) rotate(100.52)"/><path class="cls-47" d="M369.72,425.06l.16,4.28.89.17Z"/><path class="cls-34" d="M364.56,448,368.08,429a.47.47,0,0,0-.91-.17l-3.52,19Z"/><path class="cls-48" d="M364.83,448l1.23.23,3.58-19.32a1,1,0,0,0-.54-.31h-.05a.92.92,0,0,0-.63.11Z"/><rect class="cls-49" x="363.2" y="448.17" width="1.53" height="0.92" transform="translate(871.51 172.7) rotate(100.52)"/><rect class="cls-50" x="365.9" y="448.67" width="1.53" height="0.92" transform="translate(875.19 170.65) rotate(100.52)"/><path class="cls-51" d="M362.36,450.19h2.46a.06.06,0,0,1,.06.06v0a.86.86,0,0,1-.86.86h-1.66a.06.06,0,0,1-.06-.06v-.8a.06.06,0,0,1,.06-.06Z" transform="translate(873.05 175.46) rotate(100.52)"/><path class="cls-52" d="M365.05,450.69h1.66a.86.86,0,0,1,.86.86v0a.06.06,0,0,1-.06.06h-2.46a.06.06,0,0,1-.06-.06v-.8A.06.06,0,0,1,365.05,450.69Z" transform="translate(876.73 173.4) rotate(100.52)"/><path class="cls-35" d="M366.35,448.29l3.52-19a.46.46,0,0,1,.9.17l-3.52,18.95Z"/><path class="cls-48" d="M369.55,426a1,1,0,0,0,.37,0l-.2-.86-.52.76A1.12,1.12,0,0,0,369.55,426Z"/><path class="cls-53" d="M352.17,390.16l1.44-3.1,6.54-6.14c-.22-.82-.45-1.63-.67-2.45l-8.11,6.39C351.63,386.63,351.9,388.39,352.17,390.16Z"/><path class="cls-54" d="M359.48,378.47c.22.82.45,1.63.67,2.45l19.47-18.31Z"/><path class="cls-34" d="M379.62,362.61l-15,30.06-11-5.61"/><path class="cls-55" d="M352.17,390.16l3.5-2.05-2.06-1.05Z"/><path class="cls-34" d="M379.62,362.61l-37.17,19.76,8.92,2.49"/><path class="cls-56" d="M364.61,392.67q-1.46-6.6-2.92-13.21l-8.08,7.6,11,5.61"/><path class="cls-57" d="M359.48,378.47v0l-17,3.92,8.92,2.49,8.11-6.39"/><g id="W_Mark" data-name="W Mark"><path class="cls-37" d="M303.21,430.71a11.18,11.18,0,0,1,8.43-1.45,11.78,11.78,0,0,1,2,.67,11.29,11.29,0,0,1,1.89,1.06,11.16,11.16,0,0,1,3.06,3.21,11.3,11.3,0,0,1,1.58,4.14,12,12,0,0,1,.14,2.16,12.55,12.55,0,0,1-.27,2.12,11.49,11.49,0,0,1-1.73,3.92,11.19,11.19,0,0,1-11.64,4.51,11.23,11.23,0,0,1-2-.67,10.82,10.82,0,0,1-1.88-1.06,11.14,11.14,0,0,1-4.64-7.35,10.32,10.32,0,0,1-.14-2.15,10.89,10.89,0,0,1,.27-2.13,11.33,11.33,0,0,1,.67-2,11,11,0,0,1,4.26-4.94m-.38-.6a11.88,11.88,0,1,0,16.39,3.71,11.87,11.87,0,0,0-16.39-3.71Z"/><path class="cls-37" d="M300.8,445.44a9.91,9.91,0,0,0,9.47,4.56l-10.9-8.43A9.8,9.8,0,0,0,300.8,445.44Zm13.76-9.27a5.21,5.21,0,0,0-2.15-1.88,4.63,4.63,0,0,1-2.06-1.44,1.72,1.72,0,0,1,.47-2.38l.11-.06A9.91,9.91,0,0,0,299.27,440l.55-.33c.87-.55,2.16-1.52,2.16-1.52a.41.41,0,0,1,.49.66s-.42.34-.91.69l8.77,7.14L308.7,440l-3.56-2.75c-.47.26-.93.47-.93.47a.41.41,0,0,1-.38-.72s1.45-.77,2.27-1.29,2.17-1.51,2.17-1.51a.41.41,0,0,1,.49.66s-.42.34-.91.68l8.7,7.09-.86-3.28A11.32,11.32,0,0,0,314.56,436.17Zm-4.78,4.63,2.09,8.88a10,10,0,0,0,5.07-3.38.5.5,0,0,1-.14-.08Zm4.21-9.3a9.94,9.94,0,0,1,.6.83,9.32,9.32,0,0,1,1.25,3.4l2.11,9a9.9,9.9,0,0,0-4-13.24Z"/></g></g><path class="cls-58" d="M836.18,560.21l-191,81.37L544.33,404.92l191.06-81.37,95.83,225Z"/><path class="cls-10" d="M838.47,553.51,647.42,634.88,546.62,398.22l191-81.37,95.84,225Z"/><rect class="cls-34" x="589.91" y="360.14" width="185.85" height="185.85" transform="translate(-122.93 303.8) rotate(-23.07)"/><rect class="cls-59" x="623.87" y="404.12" width="114.99" height="94.99" transform="translate(-122.48 303.11) rotate(-23.07)"/><path class="cls-60" d="M656,465.7a55.92,55.92,0,0,1,14.54,15.84,56.94,56.94,0,0,1,8.19,29.67l17.81-7.81a55,55,0,0,1-20.48-23.54,54.45,54.45,0,0,1-4.76-24.24"/><path class="cls-61" d="M696.59,503.48l-3,1.31a54.14,54.14,0,0,1-24.27-47.14l-12.84,8.46-.44-.34,15.29-10.07a54.16,54.16,0,0,0,25.25,47.78Z"/><path class="cls-62" d="M686.76,441.88a15.88,15.88,0,0,1-12.35,21.93,11.3,11.3,0,0,1-21.11,6,11.44,11.44,0,0,1-3.24,1.26,11.31,11.31,0,0,1-12.91-15.33,18.06,18.06,0,0,1,19.66-28.94,11.31,11.31,0,0,1,20.42,6.23A15.84,15.84,0,0,1,686.76,441.88Z"/><path class="cls-63" d="M686.72,441.78a15.88,15.88,0,0,1-12.3,21.93,15.88,15.88,0,0,0-4.65-27.59,8.52,8.52,0,0,0-.9-4c-1.89-3.68-6.64-5.7-12.06-5.31a11.13,11.13,0,0,1,4.65-3.82,11.39,11.39,0,0,1,8.45-.09,11.78,11.78,0,0,1,6.38,6.06,11.09,11.09,0,0,1,.9,4A15.86,15.86,0,0,1,686.72,441.78Z"/><path class="cls-64" d="M703.27,493.38q16.05-30.87,32.08-61.74l-15.75-37L646.89,517.4l56.38-24"/><path class="cls-64" d="M634.12,484.27q18.36-39.87,36.73-79.75L627,423.21l-10.54,19.57Z"/><path class="cls-64" d="M717.5,485.83q10.17-22,20.32-44l2,4.35q-8.65,18.65-17.32,37.29Z"/><rect class="cls-65" x="680.45" y="403.88" width="2.98" height="95.03" transform="translate(-122.34 303.32) rotate(-23.07)"/><rect class="cls-65" x="625.06" y="449.91" width="113.76" height="2.98" transform="translate(-122.34 303.32) rotate(-23.07)"/><path class="cls-66" d="M641.78,496.48H762.87a2.23,2.23,0,0,1,2.23,2.23v2.45a0,0,0,0,1,0,0H639.54a0,0,0,0,1,0,0v-2.45A2.23,2.23,0,0,1,641.78,496.48Z" transform="translate(-139.3 315.1) rotate(-23.07)"/><path class="cls-67" d="M755.65,473.9,647.1,520.14l-38.87-91.25,108.56-46.23ZM649.33,514.58,750.1,471.67l-35.54-83.46L613.79,431.13Z"/><path class="cls-68" d="M739.53,476.87l-.75-.95a4.7,4.7,0,0,0,1.62-2.32,5.18,5.18,0,0,0-.54-4c-.23-.34-.42-.44-.5-.44s-.61,0-1.58,2.14l-1.1-.51c.91-2,1.85-2.92,2.78-2.84a2,2,0,0,1,1.4,1,6.43,6.43,0,0,1,.71,5A6,6,0,0,1,739.53,476.87Z"/><path class="cls-24" d="M727.63,469.73h12a.36.36,0,0,1,.36.36v6a6.34,6.34,0,0,1-6.34,6.34h0a6.34,6.34,0,0,1-6.34-6.34v-6a.36.36,0,0,1,.36-.36Z" transform="translate(-127.88 325.53) rotate(-23.07)"/><path class="cls-68" d="M737.09,468.08l2.35,5.5a6.33,6.33,0,0,1-7.88,8.48,6.27,6.27,0,0,0,3.63-.4,6.34,6.34,0,0,0,3.35-8.31L736.28,468l.34-.15A.36.36,0,0,1,737.09,468.08Z"/><path class="cls-69" d="M729.58,470.52c3.1-3.38,3.56-4.87,3.14-5.53-.73-1.14-4,.27-5.14-1.2-.72-.92-.26-2.53.37-3.93-2.28,2.91-2.47,4.35-2,5.1.81,1.36,3.69.57,4.5,2.05C731,468,730.33,469.35,729.58,470.52Z"/><circle class="cls-10" cx="732.83" cy="477.81" r="0.29"/><circle class="cls-10" cx="731.06" cy="476.14" r="0.22"/><circle class="cls-10" cx="735.6" cy="476.09" r="0.22"/><circle class="cls-10" cx="731.51" cy="473.75" r="0.15"/><circle class="cls-10" cx="734.28" cy="474.08" r="0.15"/><circle class="cls-10" cx="733.68" cy="472.57" r="0.36"/><path class="cls-10" d="M731.49,474.74a1.65,1.65,0,0,1,.23-.51,1.82,1.82,0,0,1,.54-.49,2.18,2.18,0,0,1,1.22-.29l.16,0a.4.4,0,0,1,.32.44.38.38,0,0,1-.42.33,1.46,1.46,0,0,0-.74.13.82.82,0,0,0-.52.69,1,1,0,0,0,0,.34,1.06,1.06,0,0,0,.46.67.82.82,0,0,0,.7.05,1.37,1.37,0,0,0,.67-.47.4.4,0,0,1,.59,0,.41.41,0,0,1,0,.49,2.15,2.15,0,0,1-.62.58A1.89,1.89,0,0,1,733,477a1.53,1.53,0,0,1-1.22-.71A1.94,1.94,0,0,1,731.49,474.74Z"/><path class="cls-10" d="M726.74,373.31a4.22,4.22,0,0,1-6.88,4.63L603,427.71a4.22,4.22,0,1,1-1.22-2.88l116.84-49.77a4.22,4.22,0,0,1,8.11-1.75Z"/><path class="cls-70" d="M629.66,413c13.43,38.47,19.83,67.73,19.65,75.43a50.36,50.36,0,0,1-3,15.7c-.67,1.69-1.33,3-1.68,3.68,1.94,1.68,3.89,3.44,5.85,5.3A178.1,178.1,0,0,1,670,534.75l-15.4,6.79Q646.63,525.78,638.9,509c-13.53-29.4-25-57.91-34.79-85.18Z"/><path class="cls-71" d="M650.53,513.07A178.81,178.81,0,0,1,670,534.75l-15.4,6.79,0-.06L665,536.87a178.1,178.1,0,0,0-19.43-21.68q-2.94-2.78-5.86-5.3a40.21,40.21,0,0,0,1.68-3.67,50.21,50.21,0,0,0,3-15.71c.18-7.7-6.22-37-19.65-75.43l5-2.12c13.43,38.47,19.83,67.73,19.65,75.43a50,50,0,0,1-3,15.7c-.67,1.69-1.33,3-1.68,3.68C646.61,509.45,648.57,511.21,650.53,513.07Z"/><path class="cls-70" d="M690.08,387.22c18.43,36.34,35.1,61.24,40.77,66.44a50.27,50.27,0,0,0,13.38,8.75c1.68.68,3.07,1.11,3.81,1.33-.13,2.56-.21,5.2-.23,7.9a177.57,177.57,0,0,0,2.17,29l15.57-6.39q-5.88-16.63-12.61-33.82c-11.82-30.12-24.42-58.16-37.31-84.11Z"/><path class="cls-71" d="M747.81,471.64a177.57,177.57,0,0,0,2.17,29l15.57-6.39,0-.06L755,498.54a177.7,177.7,0,0,1-2.17-29c0-2.69.1-5.33.23-7.89a39.82,39.82,0,0,1-3.81-1.34,49.94,49.94,0,0,1-13.37-8.74c-5.68-5.2-22.35-30.1-40.78-66.44l-5,2.12c18.43,36.34,35.1,61.24,40.77,66.44a50.27,50.27,0,0,0,13.38,8.75c1.68.68,3.07,1.11,3.81,1.33C747.91,466.3,747.83,468.94,747.81,471.64Z"/><path class="cls-72" d="M638.69,510.46c-.26-.58,6.1-3.82,6.46-3.3.21.29-1.29,1.86-3.14,2.67C640.66,510.42,638.82,510.75,638.69,510.46Z"/><path class="cls-72" d="M753.77,461.15c-.26-.39-6.57,2.26-6.41,2.69.08.24,2.15-.06,3.89-.89C752.52,462.35,753.9,461.34,753.77,461.15Z"/><path class="cls-73" d="M542,626.6c-.67,1.4-1.37,2.81-2.06,4.23s-1.28,2.58-1.93,3.87q-7.89,15.4-18.05,31.48a2.18,2.18,0,0,1-3,.67,2.17,2.17,0,0,1-.67-3,382.41,382.41,0,0,0,20-35.49c.71-1.42,1.4-2.85,2.07-4.26.74-1.57,1.48-3.14,2.18-4.71,19.55-43.14,24.74-81.92,15.41-115.69-5.43-19.63-14.69-34.22-23.66-48.32-13.33-21-25.91-40.79-26.22-75-.11-12.36,1.47-23.15,2.86-32.67,2.53-17.32,4.53-31-4-46.19-4.88-8.73-12.25-16.13-22-22.14A104.79,104.79,0,0,0,459.47,269a.35.35,0,0,1,0-.66c1.61-.57,3.22-1.14,4.85-1.7a2.69,2.69,0,0,1,1.75,0,99.25,99.25,0,0,1,22.12,11,64.44,64.44,0,0,1,20.57,21.8c9.22,16.46,7,31.49,4.48,48.91-1.38,9.36-2.93,20-2.82,32,.3,33,12.57,52.28,25.55,72.71,9.13,14.37,18.57,29.23,24.17,49.49C570.11,538.76,564,580.34,542,626.6Z"/><g class="cls-74"><path class="cls-75" d="M584,298.74a6.09,6.09,0,0,1-1.82-3.58h0a10.92,10.92,0,0,1,1.45-6.53h0a16.49,16.49,0,0,1,4.32-5.21h0a7.54,7.54,0,0,1,3.43-1.64h0a4,4,0,0,1,.69,0h0a6.7,6.7,0,0,1,4.27,1.45h0c.19.16.38.33.55.5h0c-.06-1.22-.13-2.73-.21-4.29h0c-.2-3.69-.45-7.77-.63-9h0c0-.11,0-.18,0-.22h0a9.06,9.06,0,0,1-.61-2h0a2.41,2.41,0,0,1,.11-1.26h0a1.48,1.48,0,0,1,1.19-.92h0a3.06,3.06,0,0,1,3.47,2.59h0a3.1,3.1,0,0,1,0,1.05h0v0h0a.35.35,0,0,0,0,.12h0c0,.11,0,.27,0,.46h0c0,.4,0,.93,0,1.57h0c0,1.28.1,3,.19,4.85h0c.18,3.41.45,7.37.77,10.31h0a3.47,3.47,0,0,1,1.06.33h0a1.85,1.85,0,0,1,.86.92h0a3.08,3.08,0,0,1,.25.84h0a2,2,0,0,1-.21,1.27h0a2.41,2.41,0,0,1-.78.78h0c-.35.22-.7.38-1.05.56h0a13.39,13.39,0,0,1,.48,2h0a4.91,4.91,0,0,1,.06,1.15h0a2,2,0,0,1-.43,1.19h0a1.48,1.48,0,0,1-.92.52h-.2a3.17,3.17,0,0,1-1.6-.32h0a2.28,2.28,0,0,1-1-1h0a3,3,0,0,1-.21-.5h0c-.59.5-1.38,1.15-2.29,1.82h0c-2,1.42-4.48,3-7,3.35h0a4.85,4.85,0,0,1-4.19-1.2Zm3.93-9.48c-1.22,1.91-1.93,4.22-1.71,5.46h0a1.33,1.33,0,0,0,.45.92h0a1.57,1.57,0,0,0,1.25.26h0a10.45,10.45,0,0,0,4-2.11h0c1.37-1,2.82-2.27,4.2-3.42h0c-.11-.31-.27-.72-.46-1.16h0a9.5,9.5,0,0,0-1.82-2.82h0a2.34,2.34,0,0,0-1.45-.72h0a1.4,1.4,0,0,0-.35,0H592c-1.2.17-2.88,1.66-4.06,3.56ZM608,292.75a17.31,17.31,0,0,1-3-5.09h0a45.37,45.37,0,0,1-2.47-8.51h0c0-.12,0-.23-.06-.34h0a2.42,2.42,0,0,1,.22-1.56h0a1.69,1.69,0,0,1,1.22-.83h0l.34,0h0a2.35,2.35,0,0,1,1.89.89h0a2.77,2.77,0,0,1,.51,1.27h0v0c0,.36.09.71.14,1.06h0a38,38,0,0,0,1.56,6.72h0a9,9,0,0,0,2,3.56h0a1.12,1.12,0,0,0,1,.39h0a1.31,1.31,0,0,0,.56-.24h0a4.44,4.44,0,0,0,1.52-2.34h0a13.54,13.54,0,0,0,.52-3.53h0a32.36,32.36,0,0,0-.37-5.33h0l0-.14h0a2.77,2.77,0,0,1,.11-1.44h0a2,2,0,0,1,1.66-1.18h0l.14,0h0a1.87,1.87,0,0,1,1.32.34h0a2.47,2.47,0,0,1,.71.8h0a3.7,3.7,0,0,1,.42,1.06h0l0,.08v.09c0,.51.2,2.66.15,5.15h0a22,22,0,0,1-1.24,7.69h0a5.27,5.27,0,0,1-3.23,3.3h0a4.8,4.8,0,0,1-.71.16h0a5.43,5.43,0,0,1-4.82-2Zm17.65,1.47-.35,0h0a2.39,2.39,0,0,1-1.77-.7h0a2.24,2.24,0,0,1-.49-.84h0l-.23,0h0a2.09,2.09,0,0,1-1.37-.76h0l0,0,0,0a1.78,1.78,0,0,1-.11-.25h0l0-.12h0c0-.08,0-.17-.06-.28h0c0-.22-.1-.52-.17-.89h0c-.13-.73-.3-1.74-.47-2.9h0a78.93,78.93,0,0,1-.83-8.07h0a2.61,2.61,0,0,1-.82-1.3h0v0l0-.16h0a2,2,0,0,1,.4-1.43h0a4,4,0,0,1,.62-.68h0c0-.11,0-.26,0-.42h0c0-.52.09-1.26.12-2.1h0a31.78,31.78,0,0,0-.19-5.51h0c0-.09,0-.18,0-.27h0a4.41,4.41,0,0,0-.28-.72h0a5.69,5.69,0,0,1-.41-1.3h0a1.94,1.94,0,0,1,.23-1.33h0a2,2,0,0,1,1.28-.88h0l.18,0h0a1.86,1.86,0,0,1,1.23.29h0a3.46,3.46,0,0,1,.87.84h0a6.28,6.28,0,0,1,1.09,2.7h0c0,.1,0,.2,0,.29h0a15.15,15.15,0,0,1,.09,3.48h0c-.06,1-.15,2-.2,3.53h0a17,17,0,0,1,4.85,0h0a8,8,0,0,1,5.61,3.27h0a3.47,3.47,0,0,1,.53,1.42h0a7,7,0,0,1-.66,3.63h0a22.1,22.1,0,0,1-2.07,3.71h0a63.39,63.39,0,0,1-4.43,5.71h0l-.48.58h0v0a2.33,2.33,0,0,0-.31.53h0a2.08,2.08,0,0,1-.51.72h0a1.56,1.56,0,0,1-.73.31h0Zm-1.6-10a44,44,0,0,0,1,4.79h0c.36-.38.78-.84,1.23-1.35h0a27.49,27.49,0,0,0,3.68-5.08h0a5,5,0,0,0,.78-2.75h0a1.28,1.28,0,0,0-.19-.5h0a3.42,3.42,0,0,0-2.21-1h0a12.26,12.26,0,0,0-3.73,0h0l-.78.14h0c0,.29,0,.66,0,1.09h0a35.11,35.11,0,0,0,.16,3.81h0l.12.87Zm16.5,8.88a2.67,2.67,0,0,1-1.54-.3h0a1.71,1.71,0,0,1-.78-.91h0a7.09,7.09,0,0,1-.38-1.13h0a34.06,34.06,0,0,1-.63-3.37h0c-.76-5.19-1.37-13.29-1.71-18h0c-.17-2.38-.36-4.42-.47-6h0a17.18,17.18,0,0,1,0-3.48h0a1.54,1.54,0,0,1,.3-.76h0v0h0a2.25,2.25,0,0,1,1.37-.85h0a2.67,2.67,0,0,1,2,.67h0a2.11,2.11,0,0,1,.61.76h0a3.35,3.35,0,0,1,.27,1h0a38.76,38.76,0,0,1,.18,4.18h0c0,2.11.1,5.1.3,9.44h0c.16,3.39.49,6.82.93,9.77h0a50.66,50.66,0,0,0,1,5h0v0c0,.18.08.42.12.68h0a6.45,6.45,0,0,1,.07,1.27h0a2.57,2.57,0,0,1-.45,1.43h0a1.65,1.65,0,0,1-1.05.62h0Zm6.25-3.81.27-.89-.28.89a6.2,6.2,0,0,1-2.86-2.25h0a9.28,9.28,0,0,1-1.73-4.16h0a9.08,9.08,0,0,1,.2-3.6h0a20.12,20.12,0,0,1,2.67-6.53h0a6.32,6.32,0,0,1,3.61-2.76h0L649,270h0a6.32,6.32,0,0,1,4,.9h0a8.22,8.22,0,0,1,3.59,4.76h0a10,10,0,0,1,.4,1.71h0a10.72,10.72,0,0,1-2.34,8.28h0a10.16,10.16,0,0,1-6,3.83h0a4.19,4.19,0,0,1-1.9-.11ZM650,274.14a1.62,1.62,0,0,0-.28.15h0a4.47,4.47,0,0,0-1.05.9h0a11.33,11.33,0,0,0-2.4,5.85h0a4,4,0,0,0,0,1.24h0a5.36,5.36,0,0,0,.76,2.09h0a2,2,0,0,0,1.21,1h0a1.08,1.08,0,0,0,.36,0h0a4.81,4.81,0,0,0,2.34-1.53h0a7.14,7.14,0,0,0,1.58-2.47h0v0a8.81,8.81,0,0,0,.49-3.91h0a5.14,5.14,0,0,0-.84-2.15h0a3,3,0,0,0-.89-1h0a2,2,0,0,0-.8-.25h0l-.42.14h0l-.06,0Zm-.28-.18,0-.71,0,.71Zm-83,18.21A15.13,15.13,0,0,1,569,288.6a17.64,17.64,0,0,1,6.91-4.54l1.32-.07a5.54,5.54,0,0,1,3.09.95c.88.6,1.27,1.68,1.15,3.23a5.7,5.7,0,0,1-2.25,4,12.84,12.84,0,0,1-4.69,2.48c-1.74.52-2.68,1-2.81,1.38s.16.84.87,1.31,2.29.76,4.75.88a20.31,20.31,0,0,0,6-.46,22.81,22.81,0,0,0,3.78-1.32c1-.47,2.21.44,2.76.28s1,.13,1.35.85c-1,1.42-2.53,1.25-3.71,1.93a21.59,21.59,0,0,1-4.41,1.85,27,27,0,0,1-6.47,1l-1.54,0a18.86,18.86,0,0,1-5.64-1.07,6.64,6.64,0,0,1-2.28-1.68,6.26,6.26,0,0,1-1.17-2.91A11.18,11.18,0,0,1,566.74,292.17Zm4.29.77a14.35,14.35,0,0,0,4.63-2.23c.78-.69,1.11-1.32,1-1.9s-.77-.54-1.95.08a6.77,6.77,0,0,0-2.41,1.88A20.43,20.43,0,0,0,571,292.94Z"/><path class="cls-75" d="M653,304.29a18.7,18.7,0,0,1-10-3.18h0a1.5,1.5,0,0,1-.66-1h0a1.23,1.23,0,0,1,0-.27h0a2.08,2.08,0,0,1,.45-1.26h0a2.19,2.19,0,0,1,1.13-.77h0l.24-.06h0a1.77,1.77,0,0,1,1.26.32h0a12.27,12.27,0,0,0,2.82,1.33h0a21.19,21.19,0,0,0,3.17.78h0a21.53,21.53,0,0,0,4.81.21h0q.78-.06,1.56-.18h0a18.74,18.74,0,0,0,3.12-.78h0a18.74,18.74,0,0,0,3.85-1.83h0a9.19,9.19,0,0,0,3.47-5.21h0a25.06,25.06,0,0,0,.13-7.87h0c-.22.4-.44.79-.69,1.16h0a9.55,9.55,0,0,1-1.51,1.78h0a6.79,6.79,0,0,1-2.49,1.45h0a2.56,2.56,0,0,1-.46.11h0a2.87,2.87,0,0,1-1.27-.09h0a4.49,4.49,0,0,1-1.43-.73h0a6.41,6.41,0,0,1-2.35-3.93h0c0-.15,0-.3-.08-.45h0a11.1,11.1,0,0,1,.25-4.46h0a27.28,27.28,0,0,1,1.65-4.71h0c.16-.36.48-.95,1-1.79h0a18.4,18.4,0,0,1,1.81-2.58h0a12.27,12.27,0,0,1,2.39-2.23h0a4.32,4.32,0,0,1,1.82-.77h0a3.76,3.76,0,0,1,1.06,0h0a1.56,1.56,0,0,1,.61.19h0a.7.7,0,0,1,.33.48h0a.41.41,0,0,1,0,.11h0a1.83,1.83,0,0,1-.35,1h0l.15,0h0a3.31,3.31,0,0,1,.64,0h0a1.86,1.86,0,0,1,2.06,1.51h0a.88.88,0,0,1,0,.16h0l.66,7.81h0c.23,2.61.31,5.23.39,7.84h0a29.79,29.79,0,0,1-.42,6.67h0a12.86,12.86,0,0,1-.93,2.94h0a12,12,0,0,1-3.12,3.93h0a18,18,0,0,1-4.46,2.7h0a22.2,22.2,0,0,1-5.26,1.49h0a26.15,26.15,0,0,1-5.35.27Zm13.77-33.09a8,8,0,0,0-.7,1h0l-.74,1.21h0a12.54,12.54,0,0,0-1.14,2.38h0c-.28.8-.54,1.61-.8,2.44h0a11.62,11.62,0,0,0-.76,5h0v0h0a5.42,5.42,0,0,0,.37,1.33h0c.13.26.25.35.33.37h0s0,0,.06,0h0a1,1,0,0,0,.21-.23h0a7.52,7.52,0,0,0,.59-1h0a25.58,25.58,0,0,0,1.51-4.25h0a35,35,0,0,0,.89-4.4h0c.2-1.46.4-2.91.61-4.37h0l-.43.5Z"/><path class="cls-75" d="M677.81,286.51a9.68,9.68,0,0,1-3.52-2.42h0a1.44,1.44,0,0,1-.38-.77h0a1.48,1.48,0,0,1,0-.59h0a2.54,2.54,0,0,1,.65-1.23h0a2.51,2.51,0,0,1,1.17-.71h0l.16,0h0a1.31,1.31,0,0,1,1.18.42h0a6.81,6.81,0,0,0,2.12,1.45h0a1.37,1.37,0,0,0,.82.15h0a1.27,1.27,0,0,0,.83-.6h0s0-.05,0-.09h0s0-.12.06-.21h0a2.55,2.55,0,0,0,0-.93h0v-.05h0a4.14,4.14,0,0,0-.54-1.36h0a4.74,4.74,0,0,0-1.61-1.51h0a14,14,0,0,0-1.32-.71h0a5.43,5.43,0,0,1-1.34-.9h0a4.45,4.45,0,0,1-1.46-2.68h0a4.74,4.74,0,0,1-.06-.93h0a6,6,0,0,1,1.77-4.22h0a10.27,10.27,0,0,1,3.74-2.56h0l.31-.09h0a1.21,1.21,0,0,1,1,.28h0a1.36,1.36,0,0,1,.51.87h0a1.37,1.37,0,0,1,0,.29h0a2.41,2.41,0,0,1-1.25,2.05h0a7.07,7.07,0,0,0-1,.84h0a5,5,0,0,0-.92,1.18h0a2.17,2.17,0,0,0-.31,1.19h0s0,.06,0,.09h0a1.26,1.26,0,0,0,.67.83h0a14.42,14.42,0,0,0,1.48.84h0a7,7,0,0,1,1.49,1h0a14.26,14.26,0,0,1,1.63,1.74h0a5.58,5.58,0,0,1,1.1,2.17h0a6.91,6.91,0,0,1,.17.76h0a6.91,6.91,0,0,1-.26,3.22h0a4.88,4.88,0,0,1-2.63,3h0a5.74,5.74,0,0,1-1.64.54h0a4.84,4.84,0,0,1-2.64-.33Zm3.34-4.31,0-.24,0,.24Zm-.12-.07-.09-.07.08.07Z"/><path class="cls-75" d="M669.92,260.41c.23-.48.49-.94,1.14-1a1,1,0,0,1,1,.92,2.06,2.06,0,0,1-.24.94l-1.3,2.81c-.23.49-.49.95-1.14,1a1,1,0,0,1-1-.92,1.94,1.94,0,0,1,.24-.94Z"/><path class="cls-75" d="M664,260.85a1.33,1.33,0,0,1,.32-1.47,1,1,0,0,1,1.38.11,2.07,2.07,0,0,1,.37.89l.66,3a1.31,1.31,0,0,1-.33,1.46,1,1,0,0,1-1.37-.1,2,2,0,0,1-.38-.9Z"/><path class="cls-75" d="M659.28,263.24c-.3-.45-.58-.9-.27-1.48a1,1,0,0,1,1.31-.45,2.08,2.08,0,0,1,.69.68l1.78,2.54a1.34,1.34,0,0,1,.27,1.48,1,1,0,0,1-1.31.44,2,2,0,0,1-.69-.68Z"/><path class="cls-75" d="M659.75,267.2c.5.21,1,.45,1,1.1a1,1,0,0,1-.86,1.08,1.88,1.88,0,0,1-.95-.2L656.1,268c-.49-.21-1-.45-1-1.1a1,1,0,0,1,.86-1.08,2,2,0,0,1,.95.2Z"/><path class="cls-75" d="M674.46,263.15c.41-.35.83-.67,1.44-.42a1,1,0,0,1,.58,1.26,2.19,2.19,0,0,1-.6.76l-2.32,2a1.33,1.33,0,0,1-1.44.43,1,1,0,0,1-.58-1.26,2.11,2.11,0,0,1,.6-.76Z"/></g><path class="cls-11" d="M583.13,297.87a6.12,6.12,0,0,1-1.82-3.58h0a10.85,10.85,0,0,1,1.45-6.53h0a16.75,16.75,0,0,1,4.31-5.22h0a7.6,7.6,0,0,1,3.44-1.63h0a4,4,0,0,1,.69-.05h0a6.65,6.65,0,0,1,4.26,1.45h0a5.39,5.39,0,0,1,.56.5h0c-.06-1.22-.13-2.73-.22-4.3h0c-.19-3.68-.44-7.76-.62-9h0c0-.11,0-.19,0-.22h0a8.7,8.7,0,0,1-.61-2h0a2.44,2.44,0,0,1,.1-1.27h0a1.52,1.52,0,0,1,1.2-.91h0a3.06,3.06,0,0,1,3.47,2.59h0a3.1,3.1,0,0,1,0,1h0v0h0v0h0a.35.35,0,0,0,0,.12h0c0,.11,0,.27,0,.46h0c0,.39,0,.93,0,1.57h0c0,1.28.1,3,.2,4.85h0c.18,3.41.45,7.37.77,10.31h0a3.64,3.64,0,0,1,1.06.33h0a1.89,1.89,0,0,1,.86.92h0a3.48,3.48,0,0,1,.25.84h0a1.93,1.93,0,0,1-.22,1.27h0a2.12,2.12,0,0,1-.78.77h0a11.76,11.76,0,0,1-1,.57h0a13.39,13.39,0,0,1,.48,2h0A5.51,5.51,0,0,1,601,294h0a2.07,2.07,0,0,1-.43,1.19h0a1.48,1.48,0,0,1-.92.52h-.2a3.25,3.25,0,0,1-1.6-.32h0a2.28,2.28,0,0,1-1-1h0a4.25,4.25,0,0,1-.22-.5h0c-.58.5-1.37,1.15-2.29,1.82h0a17.35,17.35,0,0,1-7,3.35h0a4.84,4.84,0,0,1-4.19-1.2Zm3.93-9.48c-1.22,1.91-1.93,4.22-1.72,5.45h0a1.33,1.33,0,0,0,.46.92h0a1.48,1.48,0,0,0,1.25.26h0a10.23,10.23,0,0,0,4-2.1h0c1.38-1,2.83-2.27,4.21-3.43h0c-.11-.3-.27-.71-.47-1.15h0a9,9,0,0,0-1.82-2.82h0a2.2,2.2,0,0,0-1.44-.72h0a1.4,1.4,0,0,0-.35,0h-.06c-1.2.18-2.89,1.67-4.06,3.57Zm20.05,3.49a17.69,17.69,0,0,1-3-5.09h0a44.87,44.87,0,0,1-2.46-8.52h0a1.86,1.86,0,0,1-.06-.34h0a2.33,2.33,0,0,1,.22-1.55h0a1.69,1.69,0,0,1,1.21-.83h0a2.11,2.11,0,0,1,.35,0h0a2.35,2.35,0,0,1,1.89.89h0a2.79,2.79,0,0,1,.51,1.26h0v0c0,.36.09.71.14,1h0a37,37,0,0,0,1.56,6.73h0a8.83,8.83,0,0,0,2,3.55h0c.42.37.69.44.95.4h0a1.25,1.25,0,0,0,.56-.25h0a4.32,4.32,0,0,0,1.52-2.33h0a13.18,13.18,0,0,0,.53-3.53h0a31.87,31.87,0,0,0-.38-5.33h0a.78.78,0,0,0,0-.14h0a2.77,2.77,0,0,1,.11-1.44h0a2,2,0,0,1,1.66-1.18h0l.14,0h0a1.82,1.82,0,0,1,1.32.34h0a2.49,2.49,0,0,1,.71.8h0a4.08,4.08,0,0,1,.42,1.05h0l0,.09v.09c0,.51.19,2.66.15,5.15h0a22.27,22.27,0,0,1-1.24,7.69h0a5.27,5.27,0,0,1-3.23,3.3h0a4.65,4.65,0,0,1-.72.16h0a5.43,5.43,0,0,1-4.82-2Zm17.65,1.47-.35,0h0a2.39,2.39,0,0,1-1.76-.71h0a2,2,0,0,1-.49-.83h0l-.24,0h0a2,2,0,0,1-1.36-.75h0l0,0,0,0a1,1,0,0,1-.11-.25h0l0-.12h0c0-.08,0-.17-.06-.28h0c0-.22-.11-.52-.17-.89h0c-.13-.74-.3-1.74-.47-2.9h0a79.52,79.52,0,0,1-.83-8.07h0a2.61,2.61,0,0,1-.82-1.3h0v0h0l0-.16h0a2,2,0,0,1,.4-1.43h0a3.32,3.32,0,0,1,.62-.68h0q0-.18,0-.42h0c0-.52.09-1.26.12-2.1h0a31.74,31.74,0,0,0-.19-5.51h0c0-.09,0-.18,0-.27h0a4.73,4.73,0,0,0-.28-.73h0a5,5,0,0,1-.41-1.29h0a2,2,0,0,1,.23-1.34h0a2,2,0,0,1,1.28-.87h0l.18,0h0a1.76,1.76,0,0,1,1.22.29h0a3.33,3.33,0,0,1,.88.84h0a6.28,6.28,0,0,1,1.09,2.7h0c0,.1,0,.19,0,.29h0a15.08,15.08,0,0,1,.09,3.47h0c-.06,1-.15,2-.2,3.54h0a16.59,16.59,0,0,1,4.85,0h0a7.94,7.94,0,0,1,5.61,3.27h0a3.36,3.36,0,0,1,.53,1.42h0a7,7,0,0,1-.66,3.63h0a23.26,23.26,0,0,1-2.07,3.71h0a64.88,64.88,0,0,1-4.43,5.71h0c-.26.3-.45.54-.48.58h0a2.6,2.6,0,0,0-.31.54h0a2,2,0,0,1-.52.72h0a1.63,1.63,0,0,1-.72.31h0Zm-1.6-10a43.81,43.81,0,0,0,1,4.8h0c.36-.38.78-.84,1.23-1.36h0a27.55,27.55,0,0,0,3.68-5.07h0a5,5,0,0,0,.77-2.75h0a1.14,1.14,0,0,0-.18-.5h0a3.42,3.42,0,0,0-2.21-1h0a12.32,12.32,0,0,0-3.74,0h0l-.77.14h0c0,.29,0,.66,0,1.09h0a35.11,35.11,0,0,0,.16,3.81h0c0,.3.08.58.12.86Zm16.5,8.89a2.8,2.8,0,0,1-1.55-.3h0s0,0,0,0h0a1.66,1.66,0,0,1-.78-.9h0a6.33,6.33,0,0,1-.38-1.14h0a33.24,33.24,0,0,1-.63-3.36h0c-.77-5.19-1.37-13.29-1.71-18h0c-.18-2.39-.36-4.42-.47-6h0a17.28,17.28,0,0,1,0-3.49h0a1.55,1.55,0,0,1,.3-.75h0v0h0a2.22,2.22,0,0,1,1.37-.85h0a2.67,2.67,0,0,1,2,.67h0a2.11,2.11,0,0,1,.61.76h0a3.37,3.37,0,0,1,.27,1h0c.12.87.13,2.07.18,4.19h0c0,2.1.1,5.1.3,9.44h0c.16,3.39.49,6.81.92,9.77h0c.29,1.91.61,3.63,1,5h0v0c0,.18.09.42.13.68h0a7.32,7.32,0,0,1,.07,1.27h0a2.54,2.54,0,0,1-.45,1.42h0a1.66,1.66,0,0,1-1,.63h0Zm6.25-3.81.27-.89-.28.89a6.2,6.2,0,0,1-2.86-2.25h0a9.21,9.21,0,0,1-1.73-4.16h0a9.24,9.24,0,0,1,.19-3.6h0a20.47,20.47,0,0,1,2.67-6.53h0a6.34,6.34,0,0,1,3.62-2.76h0l.35-.07h0a6.39,6.39,0,0,1,4,.89h0a8.33,8.33,0,0,1,3.59,4.76h0a10.15,10.15,0,0,1,.4,1.72h0a10.69,10.69,0,0,1-2.34,8.27h0a10.13,10.13,0,0,1-6,3.84h0a4.18,4.18,0,0,1-1.9-.11Zm3.19-15.19a1.32,1.32,0,0,0-.28.15h0a4.47,4.47,0,0,0-1.05.9h0a11.33,11.33,0,0,0-2.4,5.85h0a4,4,0,0,0,0,1.24h0a5.36,5.36,0,0,0,.76,2.09h0a2,2,0,0,0,1.21,1h0a1.08,1.08,0,0,0,.36,0h0a4.71,4.71,0,0,0,2.33-1.54h0a7.17,7.17,0,0,0,1.59-2.46h0v0a8.82,8.82,0,0,0,.49-3.91h0a5.09,5.09,0,0,0-.84-2.15h0a2.93,2.93,0,0,0-.89-1h0a2,2,0,0,0-.8-.25h0l-.43.13h0l0,0Zm-.28-.18,0-.71,0,.71Zm-83,18.21a15.19,15.19,0,0,1,2.25-3.57,17.73,17.73,0,0,1,6.92-4.54l1.31-.07a5.54,5.54,0,0,1,3.1.94c.88.61,1.26,1.68,1.15,3.23a5.7,5.7,0,0,1-2.25,4,13,13,0,0,1-4.69,2.48c-1.75.52-2.68,1-2.81,1.38s.16.84.87,1.31,2.29.76,4.75.87a20.25,20.25,0,0,0,6-.45,22,22,0,0,0,3.79-1.33c1-.47,2.21.45,2.76.29s1,.12,1.35.85c-1,1.42-2.53,1.25-3.71,1.93a21.59,21.59,0,0,1-4.41,1.85,27,27,0,0,1-6.47,1h-1.55a18.53,18.53,0,0,1-5.63-1.07,6.62,6.62,0,0,1-2.28-1.67,6.26,6.26,0,0,1-1.17-2.91A11.18,11.18,0,0,1,565.87,291.3Zm4.29.76a14.28,14.28,0,0,0,4.63-2.22c.78-.69,1.1-1.33,1-1.9s-.76-.55-1.94.08a6.68,6.68,0,0,0-2.41,1.88A21.28,21.28,0,0,0,570.16,292.06Z"/><path class="cls-11" d="M652.09,303.42a18.67,18.67,0,0,1-10-3.18h0a1.51,1.51,0,0,1-.67-1h0a1.22,1.22,0,0,1,0-.27h0a2.08,2.08,0,0,1,.45-1.26h0a2.19,2.19,0,0,1,1.13-.77h0l.24-.06h0a1.73,1.73,0,0,1,1.26.32h0a11.5,11.5,0,0,0,2.82,1.32h0a21,21,0,0,0,3.17.79h0a20.94,20.94,0,0,0,4.81.2h0c.52,0,1-.09,1.56-.17h0a18.74,18.74,0,0,0,3.12-.78h0a18.74,18.74,0,0,0,3.85-1.83h0a9.23,9.23,0,0,0,3.47-5.22h0a24.89,24.89,0,0,0,.12-7.86h0c-.21.4-.44.78-.68,1.16h0a9.55,9.55,0,0,1-1.51,1.78h0a6.79,6.79,0,0,1-2.49,1.45h0a2.47,2.47,0,0,1-.47.11h0a2.75,2.75,0,0,1-1.27-.1h0a4.28,4.28,0,0,1-1.43-.72h0a6.45,6.45,0,0,1-2.34-3.93h0c0-.15-.06-.3-.08-.45h0a11.1,11.1,0,0,1,.24-4.46h0a28.17,28.17,0,0,1,1.66-4.71h0c.16-.36.48-.95,1-1.8h0a19.75,19.75,0,0,1,1.8-2.57h0a12.62,12.62,0,0,1,2.4-2.23h0a4.32,4.32,0,0,1,1.82-.77h0a3.76,3.76,0,0,1,1.06,0h0a1.51,1.51,0,0,1,.6.19h0a.68.68,0,0,1,.34.48h0a.41.41,0,0,1,0,.11h0a1.77,1.77,0,0,1-.35,1h0l.15,0h0a3.25,3.25,0,0,1,.63,0h0a1.85,1.85,0,0,1,2.07,1.51h0a.88.88,0,0,1,0,.16h0l.66,7.81h0c.22,2.61.31,5.23.38,7.83h0a29.23,29.23,0,0,1-.41,6.68h0a12.86,12.86,0,0,1-.93,2.94h0a11.88,11.88,0,0,1-3.12,3.92h0a18.22,18.22,0,0,1-4.46,2.71h0a22.2,22.2,0,0,1-5.26,1.49h0a26.15,26.15,0,0,1-5.35.27Zm13.77-33.1a10.49,10.49,0,0,0-.71,1h0c-.23.38-.47.79-.73,1.21h0a12.54,12.54,0,0,0-1.14,2.38h0c-.28.8-.54,1.61-.8,2.44h0a11.47,11.47,0,0,0-.76,5h0v0h0a5,5,0,0,0,.37,1.33h0c.13.26.25.35.32.37h0l.06,0h0a1.77,1.77,0,0,0,.21-.23h0a6.36,6.36,0,0,0,.58-1h0a23.42,23.42,0,0,0,1.51-4.24h0a33.81,33.81,0,0,0,.9-4.41h0c.2-1.45.4-2.91.61-4.36h0l-.43.49Z"/><path class="cls-11" d="M676.94,285.64a9.6,9.6,0,0,1-3.52-2.42h0a1.44,1.44,0,0,1-.38-.77h0a1.68,1.68,0,0,1,0-.59h0a2.64,2.64,0,0,1,.66-1.23h0a2.46,2.46,0,0,1,1.17-.71h0l.16,0h0a1.32,1.32,0,0,1,1.18.43h0a6.69,6.69,0,0,0,2.12,1.45h0a1.55,1.55,0,0,0,.82.15h0a1.22,1.22,0,0,0,.82-.61h0a.15.15,0,0,0,0-.08h0a1.15,1.15,0,0,1,.06-.21h0a2.57,2.57,0,0,0,0-.93h0V280h0a3.88,3.88,0,0,0-.53-1.36h0a4.69,4.69,0,0,0-1.62-1.51h0c-.42-.26-.86-.5-1.31-.72h0a5.36,5.36,0,0,1-1.35-.89h0a4.46,4.46,0,0,1-1.45-2.68h0a4.74,4.74,0,0,1-.06-.93h0a6,6,0,0,1,1.76-4.23h0a10.64,10.64,0,0,1,3.75-2.56h0l.31-.08h0a1.2,1.2,0,0,1,1,.27h0a1.4,1.4,0,0,1,.51.88h0a2.64,2.64,0,0,1,0,.29h0a2.43,2.43,0,0,1-1.25,2.05h0a7.07,7.07,0,0,0-1,.84h0a5.08,5.08,0,0,0-.93,1.18h0a2.24,2.24,0,0,0-.3,1.19h0a.28.28,0,0,0,0,.09h0a1.2,1.2,0,0,0,.67.83h0a15.42,15.42,0,0,0,1.47.84h0a6.85,6.85,0,0,1,1.5,1h0a15.08,15.08,0,0,1,1.63,1.74h0a5.72,5.72,0,0,1,1.1,2.17h0a6.85,6.85,0,0,1,.16.76h0a6.9,6.9,0,0,1-.25,3.22h0a4.91,4.91,0,0,1-2.63,3h0a5.74,5.74,0,0,1-1.64.54h0a5,5,0,0,1-2.64-.33Zm3.34-4.31,0-.24,0,.24Zm-.13-.07-.08-.07.08.07Z"/><path class="cls-11" d="M669.05,259.54c.23-.48.49-1,1.14-1a1,1,0,0,1,1,.92,2.09,2.09,0,0,1-.24.94l-1.3,2.81c-.23.49-.49.95-1.14,1a1,1,0,0,1-1-.91,2.06,2.06,0,0,1,.24-.94Z"/><path class="cls-11" d="M663.07,260c-.1-.53-.18-1.06.33-1.47a1,1,0,0,1,1.37.11,1.9,1.9,0,0,1,.38.89l.66,3c.1.53.18,1.06-.33,1.47a1,1,0,0,1-1.37-.1,2,2,0,0,1-.38-.9Z"/><path class="cls-11" d="M658.41,262.36a1.29,1.29,0,0,1-.27-1.47,1,1,0,0,1,1.31-.45,2.07,2.07,0,0,1,.68.68l1.79,2.54a1.33,1.33,0,0,1,.27,1.47,1,1,0,0,1-1.31.45,2,2,0,0,1-.69-.68Z"/><path class="cls-11" d="M658.88,266.33c.49.21,1,.45,1,1.1a1,1,0,0,1-.86,1.08,2,2,0,0,1-.95-.2l-2.86-1.17c-.49-.21-1-.45-1-1.1a1,1,0,0,1,.86-1.08,1.88,1.88,0,0,1,.95.2Z"/><path class="cls-11" d="M673.59,262.28c.41-.35.83-.67,1.43-.43a1,1,0,0,1,.58,1.26,2,2,0,0,1-.59.76l-2.32,2.05a1.33,1.33,0,0,1-1.44.43,1,1,0,0,1-.58-1.26,2,2,0,0,1,.6-.76Z"/></g></g></svg>